PathFileType	4	(X/Y/Z)	C:/Users/opensim2020/Desktop/walking_exp_matlab/subject06_walking13_straight_04.trc	
DataRate	CameraRate	NumFrames	NumMarkers	Units	OrigDataRate	OrigDataStartFrame	OrigNumFrames	
100.00	100.00	8	50	mm	100.00	2911	204	
Frame#	Time	LFHD			RFHD			LBHD			RBHD			C7			T10			CLAV			STRN			RBAK			LSHO			LUPA			LELB			LFRM			LWRA			LWRB			LFIN			RSHO			RUPA			RELB			RFRM			RWRA			RWRB			RFIN			LASI			RASI			LPSI			RPSI			LTHI			LKNE			LTIB			LANK			LHEE			LTOE			RTHI			RKNE			RTIB			RANK			RHEE			RTOE			*39			*40			*41			*42			*43			*44			*45			*46			*47			*48			*49			
		X1	Y1	Z1	X2	Y2	Z2	X3	Y3	Z3	X4	Y4	Z4	X5	Y5	Z5	X6	Y6	Z6	X7	Y7	Z7	X8	Y8	Z8	X9	Y9	Z9	X10	Y10	Z10	X11	Y11	Z11	X12	Y12	Z12	X13	Y13	Z13	X14	Y14	Z14	X15	Y15	Z15	X16	Y16	Z16	X17	Y17	Z17	X18	Y18	Z18	X19	Y19	Z19	X20	Y20	Z20	X21	Y21	Z21	X22	Y22	Z22	X23	Y23	Z23	X24	Y24	Z24	X25	Y25	Z25	X26	Y26	Z26	X27	Y27	Z27	X28	Y28	Z28	X29	Y29	Z29	X30	Y30	Z30	X31	Y31	Z31	X32	Y32	Z32	X33	Y33	Z33	X34	Y34	Z34	X35	Y35	Z35	X36	Y36	Z36	X37	Y37	Z37	X38	Y38	Z38	X39	Y39	Z39	X40	Y40	Z40	X41	Y41	Z41	X42	Y42	Z42	X43	Y43	Z43	X44	Y44	Z44	X45	Y45	Z45	X46	Y46	Z46	X47	Y47	Z47	X48	Y48	Z48	X49	Y49	Z49	X50	Y50	Z50	

52	0.510	1489.96179	788.86890	1678.67297	1359.11072	793.66510	1664.67871	1496.34424	922.51581	1624.54639	1368.14868	925.70099	1616.47314	1438.58118	923.71338	1462.70386	1425.06238	950.37964	1133.19629	1437.49744	809.80994	1387.87512	1443.42200	768.32709	1212.61633	1355.86121	990.66840	1291.00085	1599.65796	870.49097	1416.36768	1666.83020	874.13922	1212.23743	1676.28674	878.81995	1100.18115	1701.01880	852.11090	952.35791	1668.00452	781.10529	840.68176	1695.07410	846.09204	832.24249	1705.46301	799.90820	755.44269	1277.07166	855.23206	1421.86353	1184.54919	886.76630	1224.80286	1166.99719	870.57605	1104.94434	1148.18408	827.95465	993.43829	1178.93298	731.18054	877.05859	1139.36523	783.93256	863.85645	1135.59216	727.80389	801.61163	1539.50745	775.40088	974.54700	1320.06348	765.06519	980.65680	1506.30139	932.95673	999.41522	1338.51550	919.00232	1005.54279	1604.87354	795.57758	662.83215	1590.97595	757.45941	503.88800	1605.10449	915.79816	315.07849	1583.66309	1019.98993	174.53285	1535.51563	1060.96912	176.13438	1597.70874	919.71741	74.84682	1270.60864	827.76733	643.13965	1297.67883	829.15002	518.01550	1309.70117	892.17358	256.96024	1364.32117	912.52246	73.30611	1412.54700	949.50909	49.05156	1355.51331	762.04297	40.79012	1433.61841	891.24078	1716.24976																														 
53	0.520	1489.78345	778.47247	1678.43481	1358.95288	783.06659	1664.51172	1495.90918	912.13275	1624.35791	1367.71875	915.16205	1616.38550	1437.96655	913.26678	1462.58936	1424.33508	940.48480	1133.16174	1437.03284	799.44055	1387.66687	1442.68506	758.29242	1212.33630	1354.89148	980.30267	1291.07715	1599.16821	860.53119	1416.09314	1666.42798	866.74432	1212.04272	1675.66956	873.17462	1100.17529	1700.54395	850.81598	951.95081	1666.39734	784.20355	837.31995	1694.79932	849.10681	831.64362	1703.89941	806.21570	752.59961	1276.60095	844.69232	1421.91638	1183.41272	875.02484	1225.06311	1165.41272	857.57043	1105.50269	1146.71265	812.19507	995.30524	1178.24377	712.46484	881.73029	1138.21863	764.41504	867.18494	1135.14905	706.41522	806.44843	1538.40857	765.17645	974.70441	1319.72400	758.65381	979.53192	1506.03772	923.01343	999.47217	1338.16309	909.82404	1005.25769	1604.29712	782.05817	664.13019	1589.94116	741.35638	505.64819	1604.29504	893.78546	311.35880	1582.85803	992.65607	166.78479	1534.86462	1033.88196	166.66565	1596.16846	887.37695	71.87585	1270.55371	820.93915	642.49640	1297.44104	823.66974	517.28009	1309.80359	889.39178	256.74002	1364.48438	911.97327	73.41853	1412.60022	949.30432	49.35385	1355.33228	761.65582	40.40676	1433.31799	880.70508	1716.09497																														 
54	0.530	1489.62390	768.01917	1678.01270	1358.78296	772.48785	1664.27856	1495.84045	902.00214	1624.10034	1367.32849	904.57758	1616.12695	1437.46155	902.84027	1462.33618	1423.52673	930.58698	1133.01038	1436.62415	789.06244	1387.31421	1441.90942	748.30096	1211.90869	1353.90820	969.92743	1290.97290	1598.67798	850.40601	1415.62878	1666.11511	859.37689	1211.74805	1675.06860	867.70990	1100.04749	1699.88818	849.29028	951.44312	1664.25439	787.40472	834.31372	1694.91748	851.87646	831.47632	1702.14465	811.84595	750.20850	1276.21057	834.23175	1421.82483	1182.31592	863.37769	1225.13892	1163.86633	844.66376	1106.00903	1145.38184	796.48358	997.08264	1177.68164	693.67926	886.56177	1137.42615	744.87476	870.39667	1134.78882	685.00568	811.42639	1537.30298	755.08771	974.87439	1318.14734	747.12360	979.42957	1505.71338	913.05194	999.35016	1337.80505	900.62683	1004.82422	1603.91846	768.07947	665.21185	1589.15881	725.61584	507.33401	1603.51233	871.49609	307.19476	1581.72253	964.62994	158.79591	1533.86987	1006.03088	156.93051	1594.44653	854.75140	69.10603	1270.50012	814.18243	641.65100	1297.31140	818.01624	516.50775	1309.91809	886.63794	256.54272	1364.61230	911.43408	73.56431	1412.75818	949.05817	49.70122	1355.23682	761.14252	39.73100	1433.09033	870.20538	1715.80273																														 
55	0.540	1489.51416	757.52161	1677.52112	1358.62048	761.94904	1663.93152	1495.17175	891.24109	1623.43274	1367.06848	894.00336	1615.73718	1436.95886	892.30896	1461.92371	1422.73193	920.69409	1132.66541	1436.19958	778.72382	1386.81848	1441.21313	738.11511	1211.34363	1353.02698	959.63605	1290.79614	1598.22192	840.12610	1415.02734	1665.84180	852.09839	1211.36243	1674.73193	862.38794	1099.93347	1699.20032	847.55927	950.90741	1661.90271	790.24591	831.76013	1694.62158	853.55475	831.05463	1700.17859	816.81616	748.19489	1275.84351	823.79480	1421.57397	1181.32629	851.98792	1225.11108	1162.36938	831.79608	1106.36182	1144.08289	780.86139	998.86621	1177.40552	674.64709	891.63660	1136.63135	725.50543	873.78699	1134.30042	664.15088	816.56744	1536.33289	744.84052	974.93182	1317.86414	740.31366	978.14441	1505.37048	903.12189	999.06708	1337.36011	891.35858	1004.21375	1604.21912	753.98456	666.32562	1588.51294	710.16840	508.80884	1602.78809	848.83130	302.69537	1580.13416	935.72516	150.45288	1532.61523	977.27515	146.95657	1592.35193	821.81213	66.41851	1270.64148	807.06818	640.81921	1297.32092	812.02448	515.56915	1310.07776	883.77563	256.34708	1364.90100	910.82666	73.70757	1413.00403	948.51135	49.95126	1354.84192	760.55695	39.18237	1432.92969	859.69476	1715.33789																														 
56	0.550	1489.40222	747.00433	1676.86414	1358.50110	751.38135	1663.42200	1494.99390	880.72864	1622.77576	1366.84399	883.38123	1615.23486	1436.61328	881.80035	1461.41418	1421.97412	910.83392	1132.24634	1435.90454	768.23987	1386.16907	1440.49158	728.07568	1210.63660	1352.14355	949.29712	1290.47742	1597.81897	829.67303	1414.25513	1665.53271	844.83899	1210.91394	1674.45178	857.24054	1099.75745	1698.56409	845.60907	950.41553	1659.37598	792.78113	829.65576	1694.82813	855.23810	831.09955	1697.97314	821.15100	746.49951	1275.48279	813.39880	1421.20117	1180.18591	840.41095	1225.03149	1160.89221	819.03949	1106.60901	1142.92163	765.28436	1000.59644	1177.06323	656.61536	896.44812	1135.76941	706.71936	877.19958	1134.05957	643.39160	821.88031	1535.37122	734.60803	974.78046	1317.19043	733.56531	976.64087	1505.08997	893.57513	998.75403	1336.94141	882.10327	1003.38483	1604.38513	740.63068	666.96246	1587.98340	695.05603	510.07074	1601.86304	825.93976	297.86057	1578.53101	906.53033	142.37424	1530.89490	948.09259	137.20473	1589.89551	788.37384	63.72589	1270.72913	799.97937	639.75836	1297.56897	806.08484	514.49457	1310.39978	880.67413	256.21286	1365.19556	910.08679	73.90015	1413.22034	948.09515	50.43988	1354.21460	760.22333	38.82302	1432.79138	849.16962	1714.74207																														 
57	0.560	1489.38696	736.48877	1676.12317	1358.46521	740.65222	1662.85522	1494.79651	870.16315	1621.95532	1366.60718	872.76416	1614.59509	1436.29712	871.24066	1460.84644	1421.27686	900.95044	1131.73218	1435.54016	757.89020	1385.38708	1439.78662	718.03296	1209.75659	1351.46057	939.03894	1290.12073	1597.43713	819.12976	1413.40894	1665.28540	837.62939	1210.42957	1674.20239	852.11914	1099.57898	1697.95422	843.81720	949.99890	1656.53870	795.13916	827.97260	1694.74280	856.21503	831.09540	1695.67273	824.87592	745.16675	1275.17322	802.97437	1420.69849	1179.28577	828.76788	1224.72998	1159.58154	806.29736	1106.69116	1141.80212	749.89459	1002.31970	1176.74939	638.57422	901.36584	1135.16821	687.83459	880.62292	1133.78735	622.81171	827.24030	1534.50073	724.34790	974.43890	1315.43933	720.04840	976.55133	1504.71655	883.47937	998.13934	1336.60205	872.73035	1002.40948	1604.16711	727.69379	667.82690	1587.68445	680.31506	511.17084	1600.79724	802.81934	293.01825	1576.68433	876.53052	134.23077	1529.42334	917.87854	127.39134	1587.31787	754.94202	61.48740	1270.90112	792.60114	638.77740	1297.35498	799.42859	513.53406	1310.81006	877.29919	256.02283	1365.47827	909.30878	74.16862	1413.43994	947.62604	50.98365	1353.91516	759.61670	38.30404	1432.76453	838.60199	1714.02356																														 
58	0.570	1489.35999	725.88452	1675.28394	1358.42639	730.03387	1662.16626	1494.92871	859.82495	1621.12451	1366.48853	862.09735	1613.84290	1435.97205	860.62134	1460.14417	1420.56189	890.97046	1131.07068	1435.29456	747.41730	1384.52893	1439.13513	707.88617	1208.82312	1350.78149	928.74414	1289.63147	1597.06335	808.52826	1412.43921	1665.10754	830.33124	1210.01343	1674.09851	847.09247	1099.49756	1697.20374	841.76422	949.57977	1653.67798	797.34515	826.56940	1694.35229	856.84827	831.08960	1693.22400	828.11047	744.16345	1274.87061	792.54248	1420.10193	1178.53162	817.68945	1224.31653	1158.22229	793.66376	1106.77808	1140.74609	734.66821	1003.97314	1176.44299	620.73291	906.35577	1134.63147	669.19293	884.11884	1133.61646	602.39764	832.73260	1533.61475	714.07275	974.08636	1314.50891	710.62177	975.39679	1504.45825	873.45026	997.43262	1336.32031	863.38666	1001.31805	1604.44348	714.86523	668.39850	1587.59888	666.02167	512.12946	1599.74011	779.63629	288.08151	1574.83801	845.94934	126.24213	1527.43335	887.22461	117.81436	1584.23096	720.87836	59.39189	1271.11182	784.96411	637.64728	1297.67371	792.89648	512.46851	1311.10925	873.75250	255.80864	1365.75098	908.58350	74.47059	1413.65503	947.23822	51.53326	1353.78406	759.09253	37.91457	1432.74841	828.01471	1713.19495																														 
59	0.580	1489.40430	715.17871	1674.25403	1358.42029	719.37115	1661.33813	1494.83215	849.16321	1620.06628	1366.37781	851.40356	1612.94324	1435.71191	849.98389	1459.32361	1419.91504	881.02332	1130.31470	1434.97705	736.97675	1383.51599	1438.50037	697.77496	1207.73596	1350.27124	918.45313	1289.08459	1596.70801	797.85315	1411.40735	1664.95764	823.00757	1209.54810	1673.90247	842.04779	1099.36926	1696.36023	839.66937	949.24725	1651.12256	799.16187	825.56714	1693.73682	857.26941	831.17639	1690.82910	830.78558	743.43542	1274.62000	782.13416	1419.41724	1177.39148	806.23456	1223.98267	1157.10107	780.95227	1106.71216	1139.84875	719.52222	1005.58704	1176.25476	603.20526	911.28827	1134.27124	650.45477	887.78723	1133.42358	582.71271	838.33423	1532.75537	703.71252	973.69495	1313.66260	701.42047	974.10760	1504.31653	863.31415	996.56299	1336.16235	853.93494	1000.09082	1604.65979	702.57739	668.55383	1587.48120	652.20428	512.68091	1598.70947	756.38092	283.30316	1572.74475	814.89465	118.54031	1525.71729	855.98431	108.62650	1581.13525	686.72931	57.69895	1271.30371	777.32983	636.44543	1297.50403	785.70905	511.28839	1311.46106	869.97589	255.42433	1365.95178	907.88831	74.74367	1413.76062	946.89319	52.05487	1353.63904	758.63678	37.59757	1432.78235	817.35046	1712.27087																														 
